<mxfile host="app.diagrams.net" agent="Mozilla/5.0 (X11; Linux x86_64; rv:140.0) Gecko/20100101 Firefox/140.0" version="28.2.8">
  <diagram name="Page-1" id="8kqvqSrlIUStSHRjoNTn">
    <mxGraphModel dx="1426" dy="914" grid="0" gridSize="10" guides="1" tooltips="1" connect="1" arrows="1" fold="1" page="1" pageScale="1" pageWidth="850" pageHeight="1100" math="0" shadow="0">
      <root>
        <mxCell id="0" />
        <mxCell id="1" parent="0" />
        <mxCell id="29_lMcJgXWUXOSpxI1Tw-3" value="&lt;b&gt;External Map Data Provider&lt;/b&gt;" style="rhombus;whiteSpace=wrap;html=1;fillColor=#fa6800;strokeColor=#C73500;fontColor=#000000;movable=1;resizable=1;rotatable=1;deletable=1;editable=1;locked=0;connectable=1;" parent="1" vertex="1">
          <mxGeometry x="336.5" y="51" width="133" height="117" as="geometry" />
        </mxCell>
        <mxCell id="29_lMcJgXWUXOSpxI1Tw-4" value="" style="rhombus;whiteSpace=wrap;html=1;fillColor=#fa6800;strokeColor=#C73500;fontColor=#000000;movable=1;resizable=1;rotatable=1;deletable=1;editable=1;locked=0;connectable=1;" parent="1" vertex="1">
          <mxGeometry x="348" y="720" width="110" height="100" as="geometry" />
        </mxCell>
        <mxCell id="29_lMcJgXWUXOSpxI1Tw-5" value="&lt;b&gt;Cached Data&lt;/b&gt;" style="rhombus;whiteSpace=wrap;html=1;fillColor=#fa6800;strokeColor=#C73500;fontColor=#000000;movable=1;resizable=1;rotatable=1;deletable=1;editable=1;locked=0;connectable=1;" parent="1" vertex="1">
          <mxGeometry x="140" y="558" width="110" height="100" as="geometry" />
        </mxCell>
        <mxCell id="e5YlROalgt90EZlh6qm4-12" value="" style="endArrow=classic;html=1;rounded=0;entryX=1;entryY=0.5;entryDx=0;entryDy=0;exitX=0.034;exitY=0.392;exitDx=0;exitDy=0;exitPerimeter=0;" parent="1" source="6Y9ZDJu8RhbXF-p6LwCY-4" target="e5YlROalgt90EZlh6qm4-19" edge="1">
          <mxGeometry width="50" height="50" relative="1" as="geometry">
            <mxPoint x="334" y="484" as="sourcePoint" />
            <mxPoint x="441" y="514" as="targetPoint" />
            <Array as="points">
              <mxPoint x="181" y="484" />
            </Array>
          </mxGeometry>
        </mxCell>
        <mxCell id="e5YlROalgt90EZlh6qm4-15" value="&lt;div&gt;&lt;font color=&quot;#000000&quot;&gt;&lt;b&gt;User Requests Chart/ Image&lt;/b&gt;&lt;/font&gt;&lt;/div&gt;" style="text;html=1;align=center;verticalAlign=middle;whiteSpace=wrap;rounded=0;movable=1;resizable=1;rotatable=1;deletable=1;editable=1;locked=0;connectable=1;fillColor=none;" parent="1" vertex="1">
          <mxGeometry x="373" y="734" width="60" height="71" as="geometry" />
        </mxCell>
        <mxCell id="e5YlROalgt90EZlh6qm4-19" value="" style="group;strokeColor=none;fillColor=none;fontColor=#ffffff;movable=1;resizable=1;rotatable=1;deletable=1;editable=1;locked=0;connectable=1;" parent="1" vertex="1" connectable="0">
          <mxGeometry x="29" y="444" width="120" height="80" as="geometry" />
        </mxCell>
        <mxCell id="e5YlROalgt90EZlh6qm4-1" value="" style="ellipse;whiteSpace=wrap;html=1;fillColor=#0050ef;fontColor=#FFFFFF;strokeColor=#001DBC;movable=0;resizable=0;rotatable=0;deletable=0;editable=0;locked=1;connectable=0;" parent="e5YlROalgt90EZlh6qm4-19" vertex="1">
          <mxGeometry width="120" height="80" as="geometry" />
        </mxCell>
        <mxCell id="e5YlROalgt90EZlh6qm4-2" value="&lt;b&gt;Browser&lt;/b&gt;" style="text;html=1;align=center;verticalAlign=middle;rounded=0;fontColor=light-dark(#000000,#000000);movable=1;resizable=1;rotatable=1;deletable=1;editable=1;locked=0;connectable=1;" parent="e5YlROalgt90EZlh6qm4-19" vertex="1">
          <mxGeometry x="30" y="25" width="60" height="30" as="geometry" />
        </mxCell>
        <mxCell id="29_lMcJgXWUXOSpxI1Tw-8" value="HTTP Response" style="text;html=1;align=center;verticalAlign=middle;resizable=0;points=[];autosize=1;strokeColor=none;fillColor=none;" parent="1" vertex="1">
          <mxGeometry x="198" y="449" width="107" height="26" as="geometry" />
        </mxCell>
        <mxCell id="29_lMcJgXWUXOSpxI1Tw-12" value="Map Data Request" style="text;html=1;align=center;verticalAlign=middle;resizable=0;points=[];autosize=1;strokeColor=none;fillColor=none;" parent="1" vertex="1">
          <mxGeometry x="413" y="168" width="118" height="26" as="geometry" />
        </mxCell>
        <mxCell id="29_lMcJgXWUXOSpxI1Tw-23" value="" style="rhombus;whiteSpace=wrap;html=1;fillColor=#fa6800;strokeColor=#C73500;fontColor=#000000;movable=1;resizable=1;rotatable=1;deletable=1;editable=1;locked=0;connectable=1;" parent="1" vertex="1">
          <mxGeometry x="140" y="714" width="110" height="100" as="geometry" />
        </mxCell>
        <mxCell id="29_lMcJgXWUXOSpxI1Tw-25" value="" style="endArrow=classic;startArrow=none;html=1;rounded=0;entryX=0.5;entryY=1;entryDx=0;entryDy=0;exitX=0.5;exitY=0;exitDx=0;exitDy=0;startFill=0;" parent="1" source="29_lMcJgXWUXOSpxI1Tw-23" target="29_lMcJgXWUXOSpxI1Tw-5" edge="1">
          <mxGeometry width="50" height="50" relative="1" as="geometry">
            <mxPoint x="557" y="587" as="sourcePoint" />
            <mxPoint x="607" y="537" as="targetPoint" />
          </mxGeometry>
        </mxCell>
        <mxCell id="29_lMcJgXWUXOSpxI1Tw-26" value="&lt;b&gt;Database&lt;/b&gt;" style="text;html=1;align=center;verticalAlign=middle;resizable=0;points=[];autosize=1;strokeColor=none;fillColor=none;" parent="1" vertex="1">
          <mxGeometry x="159.5" y="751" width="71" height="26" as="geometry" />
        </mxCell>
        <mxCell id="LRPmjM0a5f2GIW0v4T4P-1" value="" style="group;fontStyle=1;movable=0;resizable=0;rotatable=0;deletable=0;editable=0;locked=1;connectable=0;" parent="1" vertex="1" connectable="0">
          <mxGeometry x="400" y="928" width="120" height="60" as="geometry" />
        </mxCell>
        <mxCell id="6Y9ZDJu8RhbXF-p6LwCY-1" value="&lt;div&gt;&lt;font style=&quot;font-size: 36px;&quot;&gt;DFD Level 1&lt;/font&gt;&lt;/div&gt;&lt;div&gt;&lt;br&gt;&lt;/div&gt;&lt;div&gt;(Expansion of &quot;Main Application&quot; in DFD Level 0)&lt;/div&gt;" style="text;html=1;whiteSpace=wrap;strokeColor=none;fillColor=none;align=center;verticalAlign=middle;rounded=0;" vertex="1" parent="1">
          <mxGeometry x="11" y="11" width="292" height="74" as="geometry" />
        </mxCell>
        <mxCell id="6Y9ZDJu8RhbXF-p6LwCY-4" value="&lt;b&gt;Flask Python Library&lt;/b&gt;" style="rounded=0;whiteSpace=wrap;html=1;fillColor=#60a917;fontColor=#ffffff;strokeColor=#2D7600;movable=1;resizable=1;rotatable=1;deletable=1;editable=1;locked=0;connectable=1;" vertex="1" parent="1">
          <mxGeometry x="343" y="460" width="120" height="60" as="geometry" />
        </mxCell>
        <mxCell id="6Y9ZDJu8RhbXF-p6LwCY-6" value="&lt;b&gt;Plotly&amp;nbsp;Uses Data to Create Chart&lt;/b&gt;" style="rounded=0;whiteSpace=wrap;html=1;fillColor=#60a917;fontColor=#ffffff;strokeColor=#2D7600;movable=1;resizable=1;rotatable=1;deletable=1;editable=1;locked=0;connectable=1;" vertex="1" parent="1">
          <mxGeometry x="343" y="580" width="120" height="60" as="geometry" />
        </mxCell>
        <mxCell id="6Y9ZDJu8RhbXF-p6LwCY-7" value="" style="endArrow=classic;html=1;rounded=0;entryX=0.5;entryY=1;entryDx=0;entryDy=0;exitX=0.5;exitY=0;exitDx=0;exitDy=0;" edge="1" parent="1" source="6Y9ZDJu8RhbXF-p6LwCY-6" target="6Y9ZDJu8RhbXF-p6LwCY-4">
          <mxGeometry width="50" height="50" relative="1" as="geometry">
            <mxPoint x="410" y="589" as="sourcePoint" />
            <mxPoint x="592" y="558" as="targetPoint" />
          </mxGeometry>
        </mxCell>
        <mxCell id="6Y9ZDJu8RhbXF-p6LwCY-10" value="&lt;b&gt;GEOJSON/Shapefile Parser&lt;/b&gt;" style="rounded=0;whiteSpace=wrap;html=1;fillColor=#60a917;fontColor=#ffffff;strokeColor=#2D7600;movable=1;resizable=1;rotatable=1;deletable=1;editable=1;locked=0;connectable=1;" vertex="1" parent="1">
          <mxGeometry x="343" y="215" width="120" height="60" as="geometry" />
        </mxCell>
        <mxCell id="6Y9ZDJu8RhbXF-p6LwCY-11" value="" style="endArrow=classic;html=1;rounded=0;entryX=0.5;entryY=0;entryDx=0;entryDy=0;exitX=0.5;exitY=1;exitDx=0;exitDy=0;" edge="1" parent="1" source="29_lMcJgXWUXOSpxI1Tw-3" target="6Y9ZDJu8RhbXF-p6LwCY-10">
          <mxGeometry width="50" height="50" relative="1" as="geometry">
            <mxPoint x="621.5" y="193" as="sourcePoint" />
            <mxPoint x="671.5" y="143" as="targetPoint" />
          </mxGeometry>
        </mxCell>
        <mxCell id="6Y9ZDJu8RhbXF-p6LwCY-14" value="Parsed map data" style="text;html=1;align=center;verticalAlign=middle;resizable=0;points=[];autosize=1;strokeColor=none;fillColor=none;" vertex="1" parent="1">
          <mxGeometry x="418" y="281" width="109" height="26" as="geometry" />
        </mxCell>
        <mxCell id="6Y9ZDJu8RhbXF-p6LwCY-15" value="&lt;b&gt;Our Custom Visualization Generation Cod&lt;/b&gt;e" style="rounded=0;whiteSpace=wrap;html=1;fillColor=#60a917;fontColor=#ffffff;strokeColor=#2D7600;movable=1;resizable=1;rotatable=1;deletable=1;editable=1;locked=0;connectable=1;" vertex="1" parent="1">
          <mxGeometry x="343" y="328" width="120" height="60" as="geometry" />
        </mxCell>
        <mxCell id="6Y9ZDJu8RhbXF-p6LwCY-16" value="" style="endArrow=classic;html=1;rounded=0;entryX=0.5;entryY=0;entryDx=0;entryDy=0;exitX=0.5;exitY=1;exitDx=0;exitDy=0;" edge="1" parent="1" target="6Y9ZDJu8RhbXF-p6LwCY-15">
          <mxGeometry width="50" height="50" relative="1" as="geometry">
            <mxPoint x="403" y="275" as="sourcePoint" />
            <mxPoint x="671.5" y="256" as="targetPoint" />
          </mxGeometry>
        </mxCell>
        <mxCell id="6Y9ZDJu8RhbXF-p6LwCY-17" value="" style="endArrow=classic;html=1;rounded=0;exitX=0.5;exitY=1;exitDx=0;exitDy=0;" edge="1" parent="1" source="6Y9ZDJu8RhbXF-p6LwCY-15" target="6Y9ZDJu8RhbXF-p6LwCY-4">
          <mxGeometry width="50" height="50" relative="1" as="geometry">
            <mxPoint x="493" y="418" as="sourcePoint" />
            <mxPoint x="543" y="368" as="targetPoint" />
          </mxGeometry>
        </mxCell>
        <mxCell id="6Y9ZDJu8RhbXF-p6LwCY-18" value="Finished visualization" style="text;html=1;align=center;verticalAlign=middle;resizable=0;points=[];autosize=1;strokeColor=none;fillColor=none;" vertex="1" parent="1">
          <mxGeometry x="418" y="405" width="132" height="26" as="geometry" />
        </mxCell>
        <mxCell id="6Y9ZDJu8RhbXF-p6LwCY-19" value="" style="endArrow=classic;html=1;rounded=0;entryX=0.5;entryY=1;entryDx=0;entryDy=0;exitX=0.513;exitY=0.05;exitDx=0;exitDy=0;exitPerimeter=0;" edge="1" parent="1" source="29_lMcJgXWUXOSpxI1Tw-4" target="6Y9ZDJu8RhbXF-p6LwCY-6">
          <mxGeometry width="50" height="50" relative="1" as="geometry">
            <mxPoint x="350" y="728" as="sourcePoint" />
            <mxPoint x="400" y="678" as="targetPoint" />
          </mxGeometry>
        </mxCell>
        <mxCell id="6Y9ZDJu8RhbXF-p6LwCY-20" value="Request" style="text;html=1;whiteSpace=wrap;strokeColor=none;fillColor=none;align=center;verticalAlign=middle;rounded=0;" vertex="1" parent="1">
          <mxGeometry x="404" y="671" width="60" height="30" as="geometry" />
        </mxCell>
        <mxCell id="6Y9ZDJu8RhbXF-p6LwCY-21" value="" style="endArrow=classic;html=1;rounded=0;exitX=1;exitY=0.5;exitDx=0;exitDy=0;" edge="1" parent="1" source="29_lMcJgXWUXOSpxI1Tw-5" target="6Y9ZDJu8RhbXF-p6LwCY-6">
          <mxGeometry width="50" height="50" relative="1" as="geometry">
            <mxPoint x="245" y="612" as="sourcePoint" />
            <mxPoint x="295" y="562" as="targetPoint" />
          </mxGeometry>
        </mxCell>
        <mxCell id="6Y9ZDJu8RhbXF-p6LwCY-23" value="Pertinent Data" style="text;html=1;whiteSpace=wrap;strokeColor=none;fillColor=none;align=center;verticalAlign=middle;rounded=0;" vertex="1" parent="1">
          <mxGeometry x="261" y="572" width="60" height="30" as="geometry" />
        </mxCell>
        <mxCell id="6Y9ZDJu8RhbXF-p6LwCY-25" value="Completed Chart" style="text;html=1;whiteSpace=wrap;strokeColor=none;fillColor=none;align=center;verticalAlign=middle;rounded=0;" vertex="1" parent="1">
          <mxGeometry x="420" y="535" width="60" height="30" as="geometry" />
        </mxCell>
      </root>
    </mxGraphModel>
  </diagram>
</mxfile>
